HIERARCHY
ROOT Hips
{
	OFFSET 0.00000 0.00000 0.00000
	CHANNELS 6 Xposition Yposition Zposition Zrotation Yrotation Xrotation 
	JOINT LHipJoint
	{
		OFFSET 0 0 0
		CHANNELS 3 Zrotation Yrotation Xrotation
		JOINT LeftUpLeg
		{
			OFFSET 1.57358 -1.76629 0.73362
			CHANNELS 3 Zrotation Yrotation Xrotation
			JOINT LeftLeg
			{
				OFFSET 2.40600 -6.61045 0.00000
				CHANNELS 3 Zrotation Yrotation Xrotation
				JOINT LeftFoot
				{
					OFFSET 2.66168 -7.31291 0.00000
					CHANNELS 3 Zrotation Yrotation Xrotation
					JOINT LeftToeBase
					{
						OFFSET 0.20870 -0.57341 2.12506
						CHANNELS 3 Zrotation Yrotation Xrotation
						End Site
						{
							OFFSET 0.00000 -0.00000 1.10557
						}
					}
				}
			}
		}
	}
	JOINT RHipJoint
	{
		OFFSET 0 0 0
		CHANNELS 3 Zrotation Yrotation Xrotation
		JOINT RightUpLeg
		{
			OFFSET -1.49299 -1.76629 0.73362
			CHANNELS 3 Zrotation Yrotation Xrotation
			JOINT RightLeg
			{
				OFFSET -2.43663 -6.69460 0.00000
				CHANNELS 3 Zrotation Yrotation Xrotation
				JOINT RightFoot
				{
					OFFSET -2.62959 -7.22474 0.00000
					CHANNELS 3 Zrotation Yrotation Xrotation
					JOINT RightToeBase
					{
						OFFSET -0.25784 -0.70841 2.21862
						CHANNELS 3 Zrotation Yrotation Xrotation
						End Site
						{
							OFFSET -0.00000 -0.00000 1.16452
						}
					}
				}
			}
		}
	}
	JOINT LowerBack
	{
		OFFSET 0 0 0
		CHANNELS 3 Zrotation Yrotation Xrotation
		JOINT Spine
		{
			OFFSET -0.00034 2.12399 -0.25450
			CHANNELS 3 Zrotation Yrotation Xrotation
			JOINT Spine1
			{
				OFFSET 0.05594 2.14379 -0.03318
				CHANNELS 3 Zrotation Yrotation Xrotation
				JOINT Neck
				{
					OFFSET 0 0 0
					CHANNELS 3 Zrotation Yrotation Xrotation
					JOINT Neck1
					{
						OFFSET -0.09835 1.62725 0.24211
						CHANNELS 3 Zrotation Yrotation Xrotation
						JOINT Head
						{
							OFFSET 0.10849 1.66041 -0.22648
							CHANNELS 3 Zrotation Yrotation Xrotation
							End Site
							{
								OFFSET 0.04385 1.68267 -0.10541
							}
						}
					}
				}
				JOINT LeftShoulder
				{
					OFFSET 0 0 0
					CHANNELS 3 Zrotation Yrotation Xrotation
					JOINT LeftArm
					{
						OFFSET 3.29108 0.79398 -0.68179
						CHANNELS 3 Zrotation Yrotation Xrotation
						JOINT LeftForeArm
						{
							OFFSET 5.15310 -0.00000 -0.00000
							CHANNELS 3 Zrotation Yrotation Xrotation
							JOINT LeftHand
							{
								OFFSET 3.75138 -0.00000 -0.00000
								CHANNELS 3 Zrotation Yrotation Xrotation
								JOINT LeftFingerBase
								{
									OFFSET 0 0 0
									CHANNELS 3 Zrotation Yrotation Xrotation
									JOINT LeftHandIndex1
									{
										OFFSET 0.52917 -0.00000 0.00000
										CHANNELS 3 Zrotation Yrotation Xrotation
										End Site
										{
											OFFSET 0.42663 -0.00000 0.00000
										}
									}
								}
								JOINT LThumb
								{
									OFFSET 0 0 0
									CHANNELS 3 Zrotation Yrotation Xrotation
									End Site
									{
										OFFSET 0.43315 -0.00000 0.43315
									}
								}
							}
						}
					}
				}
				JOINT RightShoulder
				{
					OFFSET 0 0 0
					CHANNELS 3 Zrotation Yrotation Xrotation
					JOINT RightArm
					{
						OFFSET -3.07414 1.06285 -0.44338
						CHANNELS 3 Zrotation Yrotation Xrotation
						JOINT RightForeArm
						{
							OFFSET -5.29613 -0.00000 0.00000
							CHANNELS 3 Zrotation Yrotation Xrotation
							JOINT RightHand
							{
								OFFSET -3.76144 -0.00000 -0.00000
								CHANNELS 3 Zrotation Yrotation Xrotation
								JOINT RightFingerBase
								{
									OFFSET 0 0 0
									CHANNELS 3 Zrotation Yrotation Xrotation
									JOINT RightHandIndex1
									{
										OFFSET -0.74732 -0.00000 0.00000
										CHANNELS 3 Zrotation Yrotation Xrotation
										End Site
										{
											OFFSET -0.60251 -0.00000 0.00000
										}
									}
								}
								JOINT RThumb
								{
									OFFSET 0 0 0
									CHANNELS 3 Zrotation Yrotation Xrotation
									End Site
									{
										OFFSET -0.61171 -0.00000 0.61171
									}
								}
							}
						}
					}
				}
			}
		}
	}
}
MOTION
Frames: 7
Frame Time: .0083333
8.483300 16.442700 1.004800 106.974000 -83.020300 -93.026100 0.000000 0.000000 0.000000 -10.154200 -2.624300 -39.474800 2.812400 10.385000 30.232900 0.030500 3.653700 -6.422900 0.946800 -6.197100 -17.357300 0.000000 0.000000 0.000000 30.637800 5.954000 -4.257600 -2.509700 -9.855500 28.510100 -2.151500 -3.386800 -29.085800 -0.539400 4.705900 -13.071500 -0.954700 1.780100 8.292300 -0.765400 2.228300 -0.482900 -0.540300 1.111700 -5.160700 -10.215400 -3.751300 -19.985800 5.578500 -3.409800 18.608700 3.140900 -1.713300 9.449800 0.000000 -0.000000 0.000000 -89.106300 6.127900 -2.814200 9.220200 -15.510700 -1.258400 -0.000000 -0.000000 17.158400 19.126400 23.964800 8.018000 -7.125000 0.000000 -0.000000 -10.863800 54.845700 -2.650400 0.000000 -0.000000 0.000000 89.817600 9.673600 47.212000 -44.695000 50.618200 -22.002800 0.000000 0.000000 5.539900 -13.720000 14.549000 -3.509600 7.125000 -0.000000 -0.000000 9.363100 -15.157500 6.680400
8.336300 16.497100 1.078200 110.659000 -82.739000 -96.102100 0.000000 0.000000 0.000000 -10.937100 -2.427500 -40.071500 2.197500 9.266000 26.630900 0.029000 3.419600 -6.095000 0.808400 -5.737900 -16.025800 0.000000 0.000000 0.000000 30.097700 8.270300 -2.710700 -2.361600 -9.581700 27.632600 -2.550700 2.147100 -29.677400 -0.458300 -4.342800 12.043100 -1.261400 1.691400 8.025700 -0.719600 2.087400 -0.579800 -0.296500 1.052100 -5.124600 -10.287900 -3.900000 -20.135900 5.623300 -3.575400 18.377100 3.141200 -1.782800 9.412600 0.000000 0.000000 0.000000 -88.530000 5.618900 -2.044700 9.475500 -15.915100 -1.327500 -0.000000 -0.000000 15.872500 19.697500 23.843900 8.234700 -7.125000 0.000000 -0.000000 -10.224700 54.835500 -2.489400 0.000000 0.000000 0.000000 89.545100 9.604300 47.370000 -45.248800 50.889800 -22.431700 0.000000 0.000000 4.749000 -14.560500 14.303100 -3.671700 7.125000 -0.000000 -0.000000 8.792600 -15.339400 6.228300
8.198300 16.504600 1.221200 118.467000 -83.755700 -103.812000 0.000000 0.000000 0.000000 -10.379500 -1.794400 -40.412400 1.695000 8.199600 23.321900 0.054500 3.083800 -6.611900 0.692000 -5.317900 -14.817500 0.000000 0.000000 0.000000 31.051500 8.917600 -1.422300 -2.221300 -9.312600 26.778200 -2.584500 3.227100 -29.635800 -1.148900 -6.805900 19.141700 0.618600 1.596400 8.363600 -0.427400 2.160600 -0.562500 -1.066900 1.040500 -5.238600 -10.593500 -3.964000 -19.886500 5.817500 -3.621600 17.836500 3.247800 -1.797400 9.194100 -0.000000 -0.000000 0.000000 -88.241200 5.177600 -1.791000 9.742300 -16.335500 -1.401600 -0.000000 -0.000000 15.943000 19.546500 23.384900 8.021000 -7.125000 0.000000 -0.000000 -10.184600 54.340500 -2.356200 -0.000000 -0.000000 0.000000 89.231200 9.508800 47.330400 -45.730900 51.121500 -22.806300 0.000000 0.000000 3.873300 -14.844300 14.161900 -3.710200 7.125000 -0.000000 -0.000000 8.599200 -15.460100 6.065500
8.050000 16.481700 1.347800 124.472000 -83.325200 -109.770000 0.000000 0.000000 0.000000 -11.658500 -0.692000 -40.718300 1.263800 7.126100 20.089400 0.132300 2.886700 -8.564200 0.712300 -5.393600 -15.034700 0.000000 0.000000 0.000000 30.520700 8.083600 -0.889600 -2.101400 -9.074100 26.027300 -2.419500 0.890700 -29.211800 -0.354000 -3.822800 10.578800 0.700100 1.628600 8.552000 -0.377400 2.213800 -0.478500 -1.071800 1.064600 -5.254800 -10.827400 -3.868800 -19.778700 5.861000 -3.431200 17.559100 3.325200 -1.716200 9.067400 -0.000000 -0.000000 0.000000 -88.075100 4.862500 -1.118000 10.107200 -16.907100 -1.506000 -0.000000 -0.000000 15.564100 19.339000 23.278600 7.896600 -7.125000 0.000000 -0.000000 -10.351800 54.192800 -2.358000 -0.000000 -0.000000 0.000000 88.776000 9.413900 46.961700 -45.973000 51.236300 -22.994900 0.000000 0.000000 3.435000 -14.238000 14.477100 -3.629600 7.125000 -0.000000 -0.000000 9.012000 -15.189000 6.417100
7.896100 16.501600 1.416300 130.260000 -83.229700 -115.452000 0.000000 0.000000 0.000000 -12.967800 1.222800 -41.461400 0.929900 6.142900 17.199700 0.290500 2.679300 -11.527600 0.849600 -5.878800 -16.433100 0.000000 0.000000 0.000000 30.582400 9.302500 0.796700 -1.974400 -8.812500 25.210500 -2.421600 2.478200 -28.812700 -1.058700 -6.542000 18.365300 0.619900 1.724400 8.585400 -0.162000 2.343400 -0.408700 -0.819100 1.133800 -5.210100 -10.849300 -3.837800 -19.901700 5.879300 -3.372200 17.597300 3.343400 -1.686900 9.097700 -0.000000 -0.000000 0.000000 -87.483700 4.597500 0.684600 10.502500 -17.521600 -1.623000 -0.000000 -0.000000 13.541900 19.425900 23.055400 7.863400 -7.125000 0.000000 -0.000000 -10.171000 53.983000 -2.263900 -0.000000 -0.000000 0.000000 88.494800 9.290000 46.266000 -45.930600 51.216300 -22.961900 0.000000 0.000000 3.356800 -13.789500 14.860100 -3.601600 7.125000 -0.000000 -0.000000 9.315800 -14.837400 6.710400
7.734100 16.475400 1.512200 139.072000 -84.646800 -124.148000 0.000000 0.000000 0.000000 -12.832900 2.504900 -42.111700 0.647100 5.146000 14.325600 0.518900 1.898000 -14.428400 0.887800 -6.006200 -16.802400 0.000000 0.000000 0.000000 32.186700 9.476400 1.849000 -1.865400 -8.579900 24.489700 -2.299500 2.044000 -28.155100 -1.095700 -6.651900 18.688100 2.369600 1.519900 8.497200 0.383100 2.269300 -0.326100 -1.219100 1.058200 -5.030500 -10.814200 -3.860500 -19.667900 5.920800 -3.434400 17.174200 3.339200 -1.704200 8.916100 0.000000 0.000000 0.000000 -86.849300 4.157400 1.923000 10.864900 -18.080900 -1.733800 -0.000000 -0.000000 11.618300 17.177800 23.014700 6.891300 -7.125000 0.000000 -0.000000 -12.421100 53.522000 -2.634900 0.000000 0.000000 0.000000 88.220500 9.105900 45.764100 -45.773800 51.142000 -22.839700 0.000000 0.000000 3.242900 -14.174300 14.693800 -3.665500 7.125000 -0.000000 -0.000000 9.055400 -14.974600 6.491000
7.555600 16.503600 1.623600 136.532000 -82.573900 -122.368000 0.000000 0.000000 0.000000 -16.114900 3.654800 -40.556700 0.389600 4.008300 11.100100 0.689800 1.550500 -16.324700 0.717500 -5.412800 -15.089900 0.000000 0.000000 0.000000 29.645100 9.033500 3.534900 -1.806500 -8.450700 24.091700 -2.228700 3.035700 -27.476700 -1.139000 -6.777500 19.057800 0.882000 1.643500 9.022100 -0.160100 2.256400 0.010700 -0.958700 1.083700 -5.008500 -10.217600 -3.671100 -19.628800 5.487000 -3.258400 17.112800 3.114300 -1.628400 8.853200 0.000000 -0.000000 0.000000 -86.409300 3.698800 1.806900 11.184500 -18.570500 -1.834200 -0.000000 -0.000000 11.048000 15.711700 23.638900 6.435600 -7.125000 0.000000 -0.000000 -14.170200 53.870100 -3.138600 0.000000 -0.000000 0.000000 87.959300 8.857000 45.451800 -45.397100 50.961500 -22.546800 0.000000 0.000000 2.972800 -14.737500 14.470200 -3.760600 7.125000 -0.000000 -0.000000 8.672900 -15.155300 6.176100
